# xmcd
#
# Track frame offsets: 
#        150
#        5280
#        18217
#        20917
#        37002
#        37805
#        53717
#        54155
#        74250
#        75717
#        89840
#        91045
#        107570
#        108330
#        116352
#        117462
#        135140
#        142100
#        152255
#        154170
#        167342
#        167877
#        178400
#        195582
#        216247
#        229130
#        247565
#        258830
#        272832
#        283360
#        294880
#
# Disc length: 4230 seconds
#
# Revision: 1
# Processed by: cddbd v1.5.2PL0 Copyright (c) Steve Scherf et al.
# Submitted via: ExactAudioCopyFreeDBPlugin 1.0
#
DISCID=9d10841f
DTITLE=Michael Bloomfield - If You Love These Blues, Play 'em As You P
DTITLE=lease
DYEAR=2004
DGENRE=Blues
TTITLE0=If You Love These Blues
TTITLE1=Hey, Foreman
TTITLE2=Narrative #1
TTITLE3=WDIA
TTITLE4=Narrative #2
TTITLE5=Death Cell Rounder Blues
TTITLE6=Narrative #3
TTITLE7=City Girl
TTITLE8=Narrative #4
TTITLE9=Kansas City Blues
TTITLE10=Narrative #5
TTITLE11=Mama Lion
TTITLE12=Narrative #6
TTITLE13=Thrift Shop Rag
TTITLE14=Narrative #7
TTITLE15=Death In My Family
TTITLE16=East Colorado Blues
TTITLE17=Blue Ghost Blues
TTITLE18=Narrative #8
TTITLE19=The Train Is Gone
TTITLE20=Narrative #9
TTITLE21=The Altar Song
TTITLE22=Michael Bloomfield, Woody Harris - I'll Overcome
TTITLE23=Michael Bloomfield, Woody Harris - I Must See Jesus
TTITLE24=Michael Bloomfield, Woody Harris - Great Dreams From Heaven
TTITLE25=Michael Bloomfield, Woody Harris - Gonna Need Somebody On My 
TTITLE25=Bond
TTITLE26=Michael Bloomfield, Woody Harris - I Am A Pilgrim
TTITLE27=Michael Bloomfield, Woody Harris - Just A Closer Walk With Th
TTITLE27=ee
TTITLE28=Michael Bloomfield, Woody Harris - Have Thine Own Way
TTITLE29=Michael Bloomfield, Woody Harris - Farther Along
TTITLE30=Michael Bloomfield, Woody Harris - Peace In The Valley
EXTD=
EXTT0=
EXTT1=
EXTT2=
EXTT3=
EXTT4=
EXTT5=
EXTT6=
EXTT7=
EXTT8=
EXTT9=
EXTT10=
EXTT11=
EXTT12=
EXTT13=
EXTT14=
EXTT15=
EXTT16=
EXTT17=
EXTT18=
EXTT19=
EXTT20=
EXTT21=
EXTT22=
EXTT23=
EXTT24=
EXTT25=
EXTT26=
EXTT27=
EXTT28=
EXTT29=
EXTT30=
PLAYORDER=
